<svg width="457" height="441" viewBox="0 0 457 441" fill="none" xmlns="http://www.w3.org/2000/svg">
<path d="M26.0431 192.959L57.9821 204.271L49.9306 208.944L27.604 221.698L20.4219 225.817L26.0431 192.959Z" fill="#EBEBEB"/>
<path d="M165.12 368.293L185.016 359.273L141.706 285.477L122.195 302.834L87.8556 242.631L68.9668 255.425L38.2331 200.013L26.9512 204.785L64.4719 279.49L85.781 261.046L118.125 328.233L137.458 307.27L165.12 368.293Z" fill="#EBEBEB"/>
<path d="M451.907 283.798C451.111 289.215 448.724 294.274 445.05 298.334C441.376 302.393 436.58 305.271 431.269 306.603C425.958 307.935 420.371 307.661 415.216 305.815C410.061 303.969 405.569 300.635 402.311 296.235C399.052 291.835 397.173 286.566 396.911 281.097C396.648 275.628 398.015 270.204 400.838 265.512C403.661 260.82 407.813 257.072 412.768 254.742C417.723 252.411 423.258 251.604 428.672 252.422C435.907 253.515 442.415 257.43 446.77 263.311C451.125 269.191 452.972 276.558 451.907 283.798Z" fill="#F5F5F5"/>
<path d="M445.4 282.819C444.791 286.943 442.972 290.792 440.173 293.881C437.375 296.97 433.723 299.159 429.68 300.171C425.636 301.184 421.384 300.974 417.46 299.568C413.536 298.162 410.118 295.624 407.637 292.274C405.157 288.924 403.726 284.914 403.526 280.751C403.326 276.588 404.366 272.459 406.514 268.887C408.661 265.315 411.82 262.46 415.591 260.685C419.362 258.909 423.575 258.292 427.697 258.912C430.429 259.319 433.054 260.26 435.423 261.682C437.791 263.104 439.857 264.978 441.501 267.199C443.145 269.419 444.335 271.941 445.004 274.621C445.673 277.301 445.808 280.087 445.4 282.819Z" fill="#EBEBEB"/>
<path d="M445.499 282.197C445.35 281.343 445.29 280.475 445.321 279.609C445.188 277.299 444.701 275.023 443.878 272.861C443.305 271.385 442.569 269.977 441.685 268.663C440.674 267.163 439.471 265.802 438.109 264.612C437.377 263.961 436.594 263.37 435.768 262.844C434.919 262.283 434.027 261.791 433.1 261.372C432.142 260.933 431.151 260.57 430.137 260.285C429.093 259.998 428.03 259.786 426.956 259.653C425.877 259.527 424.79 259.484 423.705 259.524C422.651 259.57 421.601 259.692 420.564 259.89C419.556 260.079 418.564 260.35 417.6 260.7C416.676 261.02 415.778 261.41 414.913 261.866C413.311 262.709 411.823 263.755 410.487 264.978C409.325 266.051 408.281 267.247 407.375 268.544C406.077 270.456 405.077 272.555 404.412 274.768C404.242 275.619 403.984 276.45 403.641 277.247C403.509 276.37 403.563 275.475 403.799 274.62C404.257 272.243 405.151 269.972 406.437 267.922C407.326 266.486 408.38 265.16 409.578 263.97C410.96 262.613 412.523 261.453 414.221 260.522C415.138 260.011 416.092 259.572 417.077 259.208C418.106 258.825 419.163 258.522 420.238 258.299C421.351 258.07 422.481 257.931 423.616 257.884C425.951 257.784 428.286 258.061 430.532 258.704C431.621 259.021 432.685 259.421 433.713 259.9C434.708 260.365 435.666 260.907 436.578 261.52C437.45 262.116 438.275 262.776 439.048 263.496C441.736 265.935 443.754 269.023 444.906 272.466C445.669 274.763 446.004 277.181 445.894 279.599C445.945 280.483 445.811 281.368 445.499 282.197Z" fill="#E0E0E0"/>
<path d="M425.058 292.471L424.574 296.107L421.323 295.662L421.808 292.125C418.934 291.643 416.254 290.363 414.072 288.431L416.394 284.716C418.082 286.269 420.145 287.355 422.381 287.868L423.112 282.454C419.624 281.091 415.771 279.342 416.394 274.699C416.858 271.261 419.763 268.643 424.969 268.771L425.453 265.166L428.703 265.61L428.229 269.147C430.532 269.59 432.696 270.575 434.542 272.022L432.378 275.795C430.974 274.701 429.365 273.899 427.646 273.434L426.895 278.947C430.383 280.28 434.186 282.019 433.564 286.593C433.109 289.952 430.244 292.54 425.058 292.471ZM423.764 277.653L424.386 273.039C422.608 273.197 421.798 274.027 421.659 275.114C421.521 276.2 422.39 277.03 423.764 277.682V277.653ZM428.288 286.228C428.436 285.092 427.577 284.351 426.253 283.669L425.641 288.154C427.31 288.045 428.14 287.295 428.288 286.257V286.228Z" fill="#E0E0E0"/>
<path d="M431.854 66.6951C431.156 71.4073 429.076 75.8067 425.877 79.3363C422.678 82.8659 418.503 85.3672 413.882 86.5235C409.261 87.6799 404.401 87.4393 399.916 85.8323C395.432 84.2253 391.525 81.324 388.69 77.4957C385.855 73.6675 384.22 69.0842 383.991 64.3261C383.762 59.568 384.949 54.8488 387.403 50.7659C389.857 46.683 393.467 43.4198 397.777 41.3894C402.086 39.359 406.901 38.6527 411.612 39.3597C414.736 39.8247 417.738 40.9007 420.446 42.5263C423.155 44.1518 425.516 46.2951 427.396 48.8336C429.276 51.3721 430.637 54.2561 431.402 57.3208C432.167 60.3856 432.32 63.571 431.854 66.6951Z" fill="#F5F5F5"/>
<path d="M426.193 65.8457C425.666 69.4385 424.084 72.7939 421.649 75.4875C419.214 78.1812 416.034 80.0919 412.513 80.9781C408.991 81.8643 405.286 81.6861 401.866 80.466C398.446 79.2459 395.464 77.0387 393.299 74.1238C391.133 71.2088 389.881 67.7171 389.7 64.0903C389.52 60.4635 390.419 56.8647 392.285 53.7491C394.15 50.6335 396.897 48.1412 400.179 46.5875C403.462 45.0338 407.131 44.4885 410.723 45.0207C413.107 45.3699 415.399 46.186 417.467 47.4221C419.536 48.6583 421.34 50.2902 422.777 52.2245C424.214 54.1589 425.256 56.3576 425.842 58.6949C426.428 61.0322 426.548 63.4622 426.193 65.8457Z" fill="#EBEBEB"/>
<path d="M426.273 65.2726C426.144 64.5291 426.091 63.7744 426.114 63.0202C426.01 60.9908 425.586 58.9905 424.86 57.0927C424.362 55.8073 423.722 54.5814 422.953 53.4375C422.065 52.132 421.017 50.9437 419.831 49.9008C419.195 49.3374 418.514 48.8254 417.796 48.3695C417.058 47.8796 416.282 47.4501 415.475 47.0852C414.642 46.6911 413.78 46.3608 412.896 46.0973C411.985 45.8468 411.058 45.6619 410.12 45.5441C409.179 45.4444 408.231 45.4081 407.285 45.4354C406.369 45.4728 405.457 45.5818 404.558 45.7614C403.684 45.9217 402.824 46.1563 401.99 46.4628C401.188 46.7318 400.409 47.0621 399.658 47.4507C398.262 48.1814 396.966 49.0914 395.806 50.1576C394.792 51.0923 393.884 52.1359 393.099 53.2695C391.954 54.93 391.077 56.7602 390.5 58.6931C390.35 59.432 390.125 60.1536 389.829 60.8468C389.714 60.0815 389.761 59.3007 389.967 58.5548C390.368 56.4882 391.145 54.5126 392.259 52.7262C393.034 51.4868 393.953 50.3428 394.995 49.3179C396.203 48.1485 397.566 47.1512 399.046 46.3542C399.843 45.905 400.676 45.5217 401.535 45.2082C402.428 44.8708 403.346 44.6065 404.282 44.4179C405.259 44.2192 406.25 44.097 407.245 44.0524C408.264 44.0149 409.285 44.0512 410.298 44.161C411.3 44.2894 412.291 44.4942 413.262 44.7735C414.215 45.0291 415.147 45.3594 416.048 45.7614C416.912 46.1634 417.741 46.6359 418.527 47.1741C419.291 47.68 420.015 48.2448 420.691 48.8635C421.936 50.0001 423.023 51.2994 423.921 52.7262C424.697 53.9651 425.324 55.2915 425.788 56.6778C426.456 58.6751 426.751 60.778 426.658 62.8818C426.708 63.6974 426.576 64.514 426.273 65.2726Z" fill="#E0E0E0"/>
<path d="M408.472 74.2426L408.047 77.4137L405.221 77.0285L405.636 73.9462C403.129 73.548 400.784 72.4525 398.869 70.7849L400.894 67.5446C402.366 68.8958 404.163 69.8421 406.11 70.2909L406.743 65.5687C403.71 64.3833 400.351 62.8619 400.894 58.8213C401.299 55.8576 403.858 53.5459 408.363 53.6447L408.788 50.5032L411.613 50.8885L411.198 53.9707C413.206 54.3517 415.093 55.2088 416.701 56.4701L414.824 59.7599C413.61 58.7911 412.217 58.0725 410.724 57.6457L410.072 62.4568C413.115 63.6127 416.414 65.1341 415.881 69.1153C415.476 72.0593 412.986 74.3117 408.472 74.2426ZM407.336 61.3998L407.879 57.379C406.338 57.5173 405.636 58.2582 405.508 59.1869C405.379 60.1155 406.15 60.807 407.336 61.3701V61.3998ZM411.287 68.8683C411.425 67.8804 410.675 67.2284 409.519 66.6456L408.985 70.5972C410.438 70.3996 411.159 69.797 411.277 68.8091L411.287 68.8683Z" fill="#E0E0E0"/>
<path d="M149.303 36.2083C151.407 43.8774 151.189 51.9985 148.676 59.5435C146.163 67.0886 141.468 73.7185 135.185 78.5939C128.902 83.4693 121.314 86.371 113.381 86.9318C105.448 87.4926 97.5276 85.6871 90.6214 81.7441C83.7152 77.801 78.134 71.8976 74.5845 64.7811C71.035 57.6646 69.6767 49.655 70.6815 41.7661C71.6863 33.8772 75.009 26.4638 80.2291 20.4643C85.4492 14.4648 92.332 10.1489 100.006 8.0629C105.091 6.67402 110.4 6.30031 115.629 6.9631C120.858 7.62589 125.906 9.31221 130.484 11.9258C135.061 14.5393 139.079 18.0289 142.308 22.1954C145.537 26.3618 147.914 31.1234 149.303 36.2083Z" fill="#F5F5F5"/>
<path d="M140.037 38.6879C141.643 44.533 141.478 50.7231 139.563 56.4743C137.648 62.2255 134.069 67.2791 129.28 70.9951C124.491 74.7111 118.707 76.9224 112.661 77.3489C106.614 77.7754 100.577 76.398 95.3139 73.3911C90.0507 70.3841 85.7982 65.8829 83.095 60.4575C80.3917 55.032 79.3593 48.9264 80.1284 42.9138C80.8976 36.9012 83.4337 31.2521 87.4156 26.6818C91.3975 22.1115 96.6462 18.8257 102.497 17.2405C110.319 15.1211 118.662 16.1884 125.698 20.2084C132.734 24.2284 137.891 30.8735 140.037 38.6879Z" fill="#EBEBEB"/>
<path d="M139.82 37.7593C139.642 37.8186 139.168 36.5541 138.071 34.4202C136.544 31.4369 134.565 28.7076 132.203 26.3292C128.712 22.8129 124.415 20.2017 119.686 18.7224C118.334 18.2877 116.95 17.9575 115.547 17.7345C114.088 17.4872 112.611 17.355 111.131 17.3393C109.598 17.3178 108.066 17.4136 106.547 17.6258C104.987 17.8408 103.445 18.171 101.934 18.6137C100.434 19.1036 98.9712 19.7012 97.5573 20.4018C96.1831 21.0743 94.8621 21.8504 93.6057 22.7234C92.3902 23.5664 91.2408 24.501 90.1678 25.5192C89.1319 26.492 88.1678 27.5387 87.2831 28.6508C85.6422 30.7122 84.2742 32.9768 83.2129 35.3883C82.2894 37.4955 81.6036 39.6989 81.1679 41.9579C80.5439 45.2638 80.4373 48.6466 80.8518 51.9852C81.1383 54.366 81.4544 55.6799 81.2766 55.7293C81.0988 55.7787 80.5357 54.5438 79.9528 52.1432C79.161 48.7162 79.0169 45.1712 79.528 41.6912C79.875 39.2735 80.5084 36.9056 81.4149 34.6375C82.4678 32.0235 83.8702 29.5643 85.5839 27.327C86.5027 26.1091 87.5168 24.9661 88.6168 23.9089C89.753 22.7929 90.9788 21.772 92.2819 20.8562C93.6299 19.8957 95.0539 19.0466 96.5398 18.3173C99.5961 16.8042 102.88 15.803 106.261 15.3536C107.897 15.13 109.549 15.0375 111.2 15.077C112.795 15.107 114.384 15.2689 115.952 15.5611C117.454 15.8243 118.933 16.2008 120.378 16.6873C123.04 17.5796 125.57 18.8292 127.896 20.4018C129.918 21.7733 131.769 23.3819 133.408 25.1932C135.776 27.7916 137.642 30.8062 138.911 34.0843C139.771 36.3664 139.948 37.7198 139.82 37.7593Z" fill="#E0E0E0"/>
<path d="M118.659 63.4449L120.131 68.5722L115.557 69.8861L114.124 64.9465C109.511 65.9344 104.759 65.806 101.667 64.5613L102.585 58.2485C105.735 59.3171 109.108 59.552 112.376 58.9302L110.182 51.2838C104.749 51.511 98.5844 51.4419 96.6975 44.9019C95.3045 40.0414 97.636 34.8648 104.601 31.9604L103.139 26.8825L107.713 25.5686L109.145 30.5081C112.472 29.7474 115.933 29.788 119.242 30.6267L118.58 36.9196C116.065 36.286 113.449 36.1584 110.884 36.5442L113.126 44.3289C118.55 44.0622 124.616 44.1511 126.473 50.6021C127.896 55.3836 125.594 60.5108 118.659 63.4449ZM108.266 44.5265L106.448 38.0261C104.176 39.2709 103.603 40.8713 104.038 42.3828C104.472 43.8943 106.073 44.4574 108.266 44.5265ZM119.291 53.2893C118.836 51.6888 117.256 51.2048 115.092 51.0763L116.9 57.3989C119.074 56.2332 119.735 54.7612 119.291 53.2893Z" fill="#E0E0E0"/>
<path d="M59.8876 103.939C58.9719 108.827 56.6268 113.333 53.149 116.888C49.6712 120.442 45.217 122.885 40.3503 123.907C35.4836 124.929 30.4231 124.484 25.8092 122.629C21.1954 120.774 17.2356 117.592 14.431 113.485C11.6264 109.379 10.1032 104.533 10.054 99.5599C10.0048 94.5873 11.4319 89.7118 14.1547 85.5506C16.8775 81.3894 20.7735 78.1294 25.3498 76.1834C29.9261 74.2373 34.9768 73.6926 39.8628 74.6181C43.1031 75.228 46.1916 76.4703 48.9518 78.274C51.7119 80.0777 54.0897 82.4075 55.9493 85.1304C57.8088 87.8532 59.1138 90.9157 59.7895 94.143C60.4653 97.3703 60.4986 100.699 59.8876 103.939Z" fill="#F5F5F5"/>
<path d="M54.0189 102.823C53.3213 106.549 51.5341 109.983 48.8835 112.693C46.233 115.402 42.8382 117.264 39.1288 118.044C35.4195 118.823 31.5624 118.484 28.0456 117.07C24.5288 115.657 21.5105 113.231 19.3727 110.101C17.2349 106.971 16.0737 103.278 16.0361 99.4876C15.9985 95.6975 17.0861 91.9814 19.1613 88.8096C21.2365 85.6379 24.206 83.1531 27.694 81.6697C31.182 80.1864 35.0317 79.7711 38.7558 80.4765C43.7431 81.4159 48.1529 84.298 51.0153 88.4887C53.8777 92.6795 54.9581 97.8356 54.0189 102.823Z" fill="#EBEBEB"/>
<path d="M54.0894 102.23C53.9819 101.451 53.9587 100.663 54.0202 99.8787C53.982 97.7733 53.6154 95.6868 52.9335 93.6944C51.9422 90.7633 50.246 88.1206 47.994 85.9986C47.3524 85.3808 46.662 84.8158 45.9293 84.3093C45.1772 83.7741 44.3845 83.2985 43.5583 82.8867C42.7022 82.453 41.8137 82.0863 40.9009 81.7902C39.96 81.4925 38.9993 81.2614 38.026 81.0986C37.0446 80.9542 36.0543 80.8782 35.0623 80.8714C34.1063 80.8767 33.1521 80.9527 32.2073 81.0986C31.2903 81.2405 30.3854 81.4519 29.5004 81.7309C28.654 81.9991 27.8285 82.3293 27.0306 82.7188C24.2332 84.0517 21.8022 86.0454 19.9474 88.5277C18.6911 90.2143 17.7077 92.0878 17.033 94.0797C16.8432 94.8448 16.5784 95.5893 16.2427 96.3025C16.163 95.4895 16.2677 94.6689 16.549 93.9019C17.0443 91.7618 17.932 89.7319 19.1669 87.9152C20.0149 86.6497 21.0097 85.489 22.1306 84.4575C23.4367 83.2795 24.8955 82.2826 26.4675 81.4938C27.3195 81.0583 28.2048 80.6916 29.1151 80.3972C30.0593 80.0826 31.0273 79.8448 32.0097 79.6859C33.0313 79.5118 34.0655 79.4226 35.1018 79.4192C36.1671 79.4267 37.2303 79.5126 38.2829 79.676C39.3343 79.8481 40.3712 80.099 41.3849 80.4269C42.3572 80.7611 43.3018 81.1706 44.2103 81.6519C45.0961 82.1088 45.9449 82.634 46.7493 83.2226C47.5203 83.7854 48.2499 84.4027 48.9325 85.07C51.2953 87.381 53.0207 90.2634 53.9412 93.4376C54.5623 95.5481 54.7834 97.7561 54.5932 99.9479C54.5819 100.735 54.4105 101.511 54.0894 102.23Z" fill="#E0E0E0"/>
<path d="M35.1996 110.884L34.6266 114.174L31.6629 113.66L32.2161 110.459C29.6145 109.929 27.2167 108.672 25.3008 106.834L27.5433 103.544C29.0237 105.01 30.858 106.069 32.8681 106.616L33.7276 101.677C30.6058 100.314 27.158 98.5946 27.8891 94.396C28.4324 91.2841 31.1591 89.0119 35.8911 89.2885L36.4542 86.0383L39.418 86.5422L38.8647 89.743C40.9432 90.2277 42.8766 91.1995 44.5057 92.5783L42.4113 95.9273C41.1674 94.8865 39.7306 94.101 38.1831 93.6156L37.3137 98.5551C40.4355 99.8888 43.8339 101.598 43.1029 105.737C42.599 108.879 39.902 111.131 35.1996 110.884ZM34.5278 97.3993L35.2589 93.2303C33.6387 93.3192 32.878 94.0601 32.7002 95.0283C32.5224 95.9964 33.3423 96.767 34.5278 97.3993ZM38.3411 105.362C38.519 104.374 37.7682 103.633 36.5827 102.971L35.8714 107.021C37.4026 106.942 38.1732 106.29 38.3411 105.362Z" fill="#E0E0E0"/>
<path d="M452.422 325.438L428.426 324.568L432.526 329.745L443.906 343.961L447.562 348.555L452.422 325.438Z" fill="#F5F5F5"/>
<path d="M315.073 404.727L304.314 393.603L352.09 356.26L360.428 372.778L398.739 342.064L407.857 355.411L442.552 326.91L448.746 332.995L404.547 372.452L395.31 354.739L356.476 390.58L349.205 371.731L315.073 404.727Z" fill="#F5F5F5"/>
<path d="M406.811 111.803L374.754 128.874L384.04 132.549L409.726 142.507L417.995 145.728L406.811 111.803Z" fill="#E0E0E0"/>
<path d="M287.306 319.757L264.781 313.375L298.943 228.267L322.386 243.55L349.198 174.288L371.248 184.839L395.007 121.228L407.731 124.478L379.843 209.635L354.325 193.473L330.734 269.828L306.906 250.683L287.306 319.757Z" fill="#E0E0E0"/>
<path d="M453.617 440.736C453.617 440.885 352.07 441.003 226.823 441.003C101.577 441.003 0 440.885 0 440.736C0 440.588 101.527 440.479 226.823 440.479C352.119 440.479 453.617 440.598 453.617 440.736Z" fill="#263238"/>
<path d="M263.919 440.509H288.291V400.627H263.919V440.509Z" fill="url(#paint0_linear_544_4162)"/>
<path d="M362.185 440.509H386.557V372.847H362.185V440.509Z" fill="url(#paint1_linear_544_4162)"/>
<path d="M411.324 440.499H435.695V415.92H411.324V440.499Z" fill="url(#paint2_linear_544_4162)"/>
<path d="M313.048 440.499H337.42V381.669H313.048V440.499Z" fill="url(#paint3_linear_544_4162)"/>
<path d="M214.781 440.509H239.152V367.206H214.781V440.509Z" fill="url(#paint4_linear_544_4162)"/>
<path d="M165.652 440.499H190.023V346.203H165.652V440.499Z" fill="url(#paint5_linear_544_4162)"/>
<path d="M116.523 440.509H140.895L140.895 322.84H116.523L116.523 440.509Z" fill="url(#paint6_linear_544_4162)"/>
<path d="M67.3744 440.499H91.7461L91.7461 291.128H67.3744L67.3744 440.499Z" fill="url(#paint7_linear_544_4162)"/>
<path d="M18.2455 440.499H42.6172L42.6172 244.143H18.2455L18.2455 440.499Z" fill="url(#paint8_linear_544_4162)"/>
<path d="M393.086 414.073C389.101 406.516 383.193 400.144 375.958 395.599C368.724 391.055 360.419 388.499 351.881 388.19C362.204 376.76 364.24 359.076 358.282 344.87C352.325 330.664 339.216 320.064 324.496 315.499C309.776 310.935 293.683 312.002 279.052 316.724C280.761 305.62 269.647 294.526 258.543 296.255C260.753 294.742 262.315 292.455 262.919 289.845C263.523 287.236 263.126 284.495 261.805 282.165C260.485 279.835 258.338 278.085 255.789 277.262C253.24 276.439 250.476 276.604 248.042 277.722L248.704 196.249H200.296L200.948 277.682C198.499 276.454 195.67 276.213 193.048 277.01C190.426 277.807 188.21 279.581 186.858 281.965C185.506 284.349 185.122 287.161 185.784 289.821C186.447 292.48 188.105 294.784 190.417 296.255C179.313 294.526 168.199 305.62 169.899 316.724C155.238 312.002 139.135 310.925 124.455 315.499C109.775 320.073 96.5663 330.654 90.6389 344.87C84.7114 359.086 86.6872 376.76 97.0504 388.19C88.5113 388.499 80.205 391.055 72.9689 395.6C65.7328 400.144 59.8228 406.516 55.8349 414.073C51.3301 422.885 50.8954 435.896 59.668 440.499H389.253C398.016 435.896 397.601 422.885 393.086 414.073Z" fill="#EBEBEB"/>
<path d="M59.6396 440.499L58.464 439.798C57.3304 439.037 56.3293 438.096 55.5003 437.012C54.2078 435.201 53.3339 433.126 52.9416 430.936C52.4019 427.93 52.4388 424.849 53.0502 421.857C53.771 418.074 55.1988 414.461 57.2587 411.208C59.6537 407.268 62.6201 403.706 66.061 400.637C70.0219 397.055 74.5398 394.142 79.4372 392.013L81.413 391.173L83.4679 390.452C84.1612 390.202 84.8669 389.988 85.582 389.81C86.3032 389.612 87.0145 389.385 87.7554 389.227C90.7846 388.546 93.87 388.146 96.9726 388.031L96.854 388.288C93.7369 384.767 91.3015 380.697 89.6719 376.285C87.4161 370.044 86.6172 363.37 87.3363 356.772C88.0555 350.175 90.2736 343.83 93.8211 338.221C95.3294 335.756 97.0695 333.441 99.0175 331.306C107.354 322.195 118.405 316.015 130.532 313.682C136.946 312.414 143.504 312.029 150.023 312.536C156.779 313.081 163.449 314.407 169.9 316.487L169.603 316.744C169.22 314.061 169.512 311.324 170.453 308.782C171.44 306.146 172.961 303.742 174.921 301.723C176.882 299.703 179.238 298.11 181.844 297.045C184.56 295.948 187.521 295.597 190.419 296.028L190.241 296.462C187.989 294.911 186.4 292.573 185.786 289.908C185.173 287.243 185.581 284.445 186.929 282.066C188.276 279.687 190.467 277.899 193.067 277.054C195.668 276.21 198.491 276.371 200.979 277.505L200.634 277.732C200.416 251.799 200.199 224.454 199.972 196.299V196.042H248.893V196.249C248.666 224.335 248.438 251.572 248.231 277.682L247.885 277.455C250.373 276.321 253.196 276.16 255.797 277.005C258.398 277.849 260.588 279.637 261.936 282.017C263.284 284.396 263.691 287.194 263.078 289.859C262.465 292.523 260.876 294.862 258.624 296.413L258.446 295.978C261.296 295.558 264.207 295.899 266.883 296.966C269.497 298.016 271.865 299.597 273.838 301.608C275.81 303.62 277.344 306.019 278.342 308.653C279.324 311.237 279.63 314.029 279.231 316.764L278.935 316.507C285.386 314.427 292.056 313.101 298.812 312.555C305.32 312.05 311.868 312.432 318.273 313.692C330.387 316.022 341.431 322.183 349.778 331.266C351.724 333.405 353.466 335.72 354.984 338.182C356.486 340.55 357.756 343.058 358.778 345.67C359.775 348.21 360.526 350.84 361.02 353.524C361.496 356.132 361.743 358.776 361.761 361.427C361.772 366.478 360.903 371.493 359.193 376.246C357.561 380.677 355.115 384.765 351.981 388.298L351.872 388.041C354.978 388.156 358.067 388.556 361.099 389.237C361.83 389.405 362.551 389.632 363.273 389.82C363.988 390 364.694 390.217 365.387 390.472L367.451 391.193L369.427 392.032C374.332 394.163 378.857 397.079 382.823 400.667C386.257 403.744 389.219 407.309 391.616 411.247C393.668 414.504 395.092 418.116 395.814 421.897C396.415 424.887 396.445 427.964 395.903 430.966C395.507 433.151 394.633 435.222 393.344 437.032C392.519 438.116 391.517 439.054 390.381 439.808C389.61 440.282 389.205 440.509 389.205 440.509L390.361 439.768C391.463 439 392.433 438.059 393.236 436.982C394.501 435.174 395.355 433.11 395.735 430.936C396.258 427.951 396.214 424.895 395.607 421.927C394.878 418.168 393.45 414.579 391.398 411.346C389.002 407.436 386.043 403.901 382.616 400.854C378.665 397.294 374.16 394.401 369.279 392.289L367.303 391.459L365.248 390.748C364.559 390.495 363.856 390.278 363.144 390.096C362.423 389.908 361.712 389.691 360.981 389.523C357.967 388.854 354.898 388.461 351.813 388.348H351.487L351.704 388.101C354.8 384.593 357.215 380.539 358.827 376.147C360.521 371.422 361.377 366.437 361.356 361.417C361.328 358.793 361.081 356.176 360.615 353.593C360.12 350.932 359.369 348.325 358.373 345.808C357.357 343.218 356.097 340.73 354.609 338.379C353.104 335.967 351.385 333.695 349.471 331.592C341.18 322.582 330.211 316.476 318.185 314.176C311.814 312.928 305.303 312.553 298.831 313.059C292.115 313.61 285.485 314.936 279.073 317.011L278.718 317.12L278.767 316.754C279.155 314.089 278.856 311.368 277.898 308.851C276.915 306.292 275.415 303.964 273.491 302.012C271.566 300.061 269.259 298.528 266.715 297.51C264.116 296.463 261.287 296.122 258.515 296.522L257.478 296.69L258.347 296.087C260.485 294.599 261.991 292.366 262.569 289.825C263.146 287.285 262.754 284.62 261.47 282.354C260.185 280.087 258.1 278.382 255.624 277.573C253.147 276.764 250.458 276.908 248.083 277.979L247.737 278.137V277.751C247.944 251.661 248.152 224.405 248.379 196.318L248.636 196.575H200.298L200.555 196.318C200.772 224.474 200.989 251.809 201.197 277.751V278.137L200.841 277.979C198.478 276.949 195.818 276.828 193.372 277.64C190.925 278.452 188.865 280.139 187.587 282.378C186.309 284.617 185.904 287.248 186.448 289.768C186.993 292.287 188.449 294.517 190.537 296.028L191.407 296.63L190.359 296.462C187.558 296.048 184.697 296.389 182.071 297.45C179.491 298.496 177.161 300.075 175.234 302.084C171.411 306.035 169.307 311.508 170.107 316.635L170.167 317.001L169.811 316.892C163.4 314.814 156.77 313.488 150.053 312.941C143.578 312.439 137.064 312.815 130.69 314.057C118.634 316.382 107.648 322.531 99.3633 331.592C97.4351 333.708 95.7056 335.996 94.1965 338.429C92.7039 340.776 91.4465 343.264 90.4425 345.858C86.6525 355.58 86.5051 366.344 90.0276 376.167C91.6436 380.543 94.0552 384.582 97.1405 388.081L97.3578 388.328H97.022C93.9433 388.441 90.8813 388.835 87.8739 389.503C87.1429 389.661 86.4316 389.889 85.7104 390.076C84.9893 390.264 84.2977 390.462 83.6062 390.719L81.5612 391.43L79.5854 392.26C74.7051 394.365 70.2004 397.251 66.2487 400.805C62.824 403.857 59.8621 407.391 57.4563 411.297C55.4059 414.531 53.9754 418.119 53.2379 421.877C52.628 424.849 52.5811 427.908 53.0996 430.897C53.476 433.075 54.3295 435.143 55.599 436.953C56.3992 438.038 57.3741 438.982 58.4837 439.748L59.6396 440.499Z" fill="#263238"/>
<path d="M161.65 84.6554L222.614 13.6941L281.197 84.6554H258.337V200.398H187.366V84.7838L161.65 84.6554Z" fill="url(#paint9_linear_544_4162)"/>
<path d="M451.205 199.974L408.043 213.241L418.525 219.85L447.559 237.919L456.895 243.758L451.205 199.974Z" fill="url(#paint10_linear_544_4162)"/>
<path d="M256.43 424.594L230.418 411.593L292.113 316.24L317.166 340.256L366.166 262.409L390.627 280.36L434.579 208.667L449.358 215.573L395.309 312.447L367.935 286.89L321.187 374.092L296.588 345.314L256.43 424.594Z" fill="url(#paint11_linear_544_4162)"/>
<g opacity="0.3">
<path d="M281.888 400.015C275.961 396.063 268.314 395.668 261.349 397.051C259.048 397.505 256.499 398.098 254.484 396.903C252.468 395.707 251.796 393.198 251.006 390.975C246.936 379.792 235.773 372.126 224.026 370.17C212.28 368.214 202.856 369.182 192.216 374.487C184.725 378.03 178.334 383.537 173.722 390.422C172.132 392.803 169.237 397.654 169.237 397.654C167.113 399.215 164.298 399.323 161.689 399.748C156.301 400.717 151.309 403.231 147.323 406.985C143.336 410.738 140.526 415.568 139.234 420.889L288.467 418.528C291.273 411.968 287.806 403.937 281.888 400.015Z" fill="black"/>
</g>
<path d="M131.064 430.66C135.727 414.132 154.112 402.791 170.976 406.051C174.522 388.071 191.722 373.796 210.087 373.648C228.452 373.499 245.879 387.478 249.712 405.429C259.838 403.097 270.725 401.368 280.396 405.172C290.068 408.975 297.467 420.316 293.466 429.869" fill="#EBEBEB"/>
<path d="M293.467 429.909C293.467 429.909 293.467 429.81 293.546 429.622C293.625 429.435 293.694 429.158 293.803 428.802C293.968 428.355 294.084 427.892 294.148 427.419C294.299 426.794 294.388 426.155 294.415 425.513C294.632 421.263 293.361 417.071 290.819 413.658C289.088 411.214 286.917 409.114 284.418 407.464C281.459 405.564 278.145 404.287 274.677 403.71C270.743 403.056 266.738 402.936 262.772 403.354C258.388 403.839 254.042 404.618 249.762 405.685H249.535V405.458C247.767 397.836 243.799 390.9 238.124 385.512C231.937 379.527 224.048 375.606 215.541 374.29C210.163 373.512 204.68 373.954 199.497 375.584C189.837 378.636 181.579 385.027 176.202 393.613C173.837 397.443 172.165 401.66 171.263 406.071V406.278H171.045C167.44 405.617 163.75 405.57 160.129 406.14C158.458 406.394 156.807 406.767 155.189 407.256L152.888 408.056C152.117 408.303 151.426 408.689 150.704 408.985C149.351 409.609 148.032 410.305 146.753 411.07L144.984 412.255L144.115 412.838L143.325 413.47L141.784 414.705C141.29 415.11 140.855 415.574 140.401 415.989C139.946 416.404 139.511 416.819 139.116 417.254L137.99 418.538C135.738 421.151 133.893 424.089 132.517 427.251C132.043 428.348 131.796 429.227 131.529 429.8C131.262 430.373 131.203 430.679 131.203 430.679C131.203 430.679 131.519 429.445 132.359 427.202C133.695 424.003 135.515 421.028 137.753 418.38L138.889 417.066C139.284 416.631 139.739 416.226 140.173 415.792C140.608 415.357 141.053 414.903 141.556 414.488L143.098 413.233C143.364 413.016 143.621 412.798 143.898 412.591L144.757 411.998L146.545 410.793C147.842 410.012 149.181 409.303 150.556 408.669C151.277 408.363 151.979 407.968 152.749 407.681L155.081 406.861C156.721 406.359 158.395 405.976 160.09 405.715C163.756 405.117 167.498 405.151 171.154 405.814L170.897 405.992C171.803 401.52 173.495 397.246 175.896 393.366C178.495 389.179 181.8 385.476 185.666 382.42C189.735 379.18 194.358 376.703 199.309 375.11C204.566 373.456 210.128 373.011 215.58 373.806C224.191 375.131 232.176 379.102 238.43 385.167C244.169 390.633 248.174 397.665 249.949 405.389L249.663 405.211C253.971 404.172 258.344 403.422 262.753 402.969C266.757 402.557 270.798 402.693 274.766 403.374C278.288 403.966 281.651 405.278 284.645 407.227C287.166 408.912 289.35 411.053 291.086 413.539C293.635 417.001 294.88 421.252 294.603 425.542C294.559 426.192 294.457 426.837 294.297 427.469C294.213 427.932 294.084 428.385 293.911 428.822C293.783 429.168 293.684 429.435 293.615 429.642C293.577 429.737 293.527 429.827 293.467 429.909Z" fill="#263238"/>
<path d="M200.554 176.353C201.186 216.037 169.563 248.836 130.067 249.458C90.5701 250.08 57.9494 218.329 57.2875 178.645C56.6256 138.961 88.2683 106.162 127.765 105.54C167.261 104.917 199.921 136.679 200.554 176.353ZM94.6699 178.062C94.8113 184.827 96.9536 191.399 100.826 196.948C104.699 202.498 110.129 206.775 116.43 209.241C122.732 211.708 129.623 212.252 136.233 210.806C142.844 209.359 148.878 205.987 153.574 201.115C158.27 196.243 161.417 190.089 162.619 183.429C163.821 176.77 163.023 169.904 160.327 163.698C157.63 157.491 153.156 152.223 147.468 148.557C141.78 144.891 135.133 142.992 128.367 143.1C119.265 143.274 110.603 147.054 104.285 153.609C97.9667 160.164 94.5086 168.959 94.6699 178.062Z" fill="#E0E0E0"/>
<path d="M200.555 176.353C201.187 216.037 169.564 248.835 130.067 249.458L129.465 211.917C138.591 211.772 147.285 208.007 153.635 201.452C159.985 194.896 163.471 186.086 163.325 176.96C163.18 167.835 159.415 159.14 152.86 152.79C146.304 146.44 137.494 142.954 128.368 143.1L127.766 105.559C167.262 104.907 199.912 136.678 200.555 176.353Z" fill="#455A64"/>
<path d="M129.581 249.972L128.969 211.443H129.463C136.158 211.306 142.662 209.191 148.158 205.364C153.653 201.537 157.893 196.17 160.345 189.939C162.796 183.707 163.349 176.89 161.934 170.344C160.519 163.799 157.199 157.819 152.392 153.157C149.222 150.052 145.466 147.607 141.344 145.966C137.221 144.324 132.813 143.518 128.376 143.594H127.882L127.26 105.066H127.754C146.92 104.82 165.401 112.188 179.142 125.553C192.883 138.917 200.76 157.187 201.046 176.353C201.679 216.314 169.848 249.339 130.075 249.981L129.581 249.972ZM129.967 212.431L130.549 248.984C169.552 248.085 200.691 215.612 200.059 176.373C199.778 157.554 192.077 139.608 178.633 126.437C165.189 113.267 147.088 105.937 128.267 106.044L128.85 142.596C137.962 142.672 146.683 146.308 153.151 152.727C159.619 159.145 163.321 167.838 163.466 176.949C163.612 186.06 160.19 194.867 153.931 201.489C147.672 208.111 139.071 212.024 129.967 212.392V212.431Z" fill="#455A64"/>
<path d="M136.498 255.247C90.2932 255.998 53.4245 220.137 52.6836 173.705L96.4182 173.004C96.7738 195.202 113.667 209.171 135.757 208.816L136.498 255.247Z" fill="url(#paint12_linear_544_4162)"/>
<path d="M77.7953 174.515C78.0719 174.703 73.9424 181.194 68.5682 188.988C63.194 196.783 58.6003 202.967 58.3236 202.819C58.047 202.671 62.1864 196.141 67.5606 188.336C72.9348 180.532 77.5285 174.278 77.7953 174.515Z" fill="#263238"/>
<path d="M96.8245 178.121C97.1011 178.319 90.986 187.674 83.1716 199.025C75.3573 210.376 68.7778 219.416 68.5012 219.228C68.2246 219.04 74.3397 209.685 82.164 198.334C89.9882 186.983 96.5676 177.933 96.8245 178.121Z" fill="#263238"/>
<path d="M106.069 197.573C106.356 197.761 100.843 206.237 93.7799 216.491C86.7163 226.746 80.7593 234.906 80.4826 234.718C80.206 234.53 85.7087 226.054 92.7722 215.8C99.8357 205.545 105.793 197.375 106.069 197.573Z" fill="#263238"/>
<path d="M122.173 208.331C122.449 208.519 116.947 216.985 109.883 227.25C102.82 237.514 96.8625 245.644 96.5661 245.477C96.2697 245.309 101.792 236.813 108.866 226.548C115.939 216.284 121.896 208.104 122.173 208.331Z" fill="#263238"/>
<path d="M135.963 221.935C136.25 222.132 131.745 229.137 125.926 237.593C120.107 246.05 115.148 252.787 114.871 252.56C114.595 252.333 119.09 245.358 124.918 236.902C130.747 228.445 135.687 221.787 135.963 221.935Z" fill="#263238"/>
<path d="M364.053 39.3301C364.053 39.3301 368.37 29.3918 368.577 27.8309C368.785 26.27 368.36 22.8222 367.244 21.9035C366.78 21.4548 366.184 21.1659 365.545 21.0789C364.905 20.9918 364.254 21.1111 363.687 21.4194C363.617 20.7934 363.35 20.2061 362.923 19.7424C362.497 19.2788 361.934 18.963 361.316 18.841C361.07 18.7544 360.807 18.729 360.549 18.7669C360.29 18.8048 360.045 18.9048 359.834 19.0584C359.624 19.2119 359.453 19.4144 359.338 19.6485C359.222 19.8825 359.166 20.1411 359.173 20.4019C359.187 19.957 359.044 19.5212 358.77 19.1709C358.495 18.8205 358.106 18.5778 357.671 18.4853C357.099 18.3948 356.513 18.481 355.991 18.7323C355.991 18.7323 353.887 16.8553 352.475 18.021C351.062 19.1867 352.692 37.2951 352.692 37.2951L364.053 39.3301Z" fill="#FFBF9D"/>
<path d="M352.435 35.2206C352.435 35.2206 348.582 28.5918 348.602 26.7839C348.621 24.976 350.785 20.8565 351.99 20.3625C353.195 19.8685 357.918 18.772 357.918 18.772C357.918 18.772 359.893 20.5996 356.979 22.4075L353.679 24.3536C353.679 24.3536 358.975 26.122 358.807 31.5357" fill="#FFBF9D"/>
<path d="M358.808 31.4862C358.723 30.636 358.558 29.7957 358.314 28.977C357.965 28.071 357.438 27.2445 356.763 26.5467C355.872 25.6483 354.797 24.954 353.611 24.5116L353.167 24.3437L353.572 24.1165L356.931 22.1406C357.504 21.8183 357.958 21.3193 358.225 20.7181C358.319 20.4085 358.325 20.0786 358.241 19.766C358.157 19.4533 357.987 19.1705 357.751 18.9497L357.978 19.009L355.439 19.6116L353.463 20.1352C353.137 20.234 352.811 20.3229 352.475 20.4316C352.324 20.4782 352.175 20.5343 352.031 20.5995C351.908 20.6709 351.792 20.7535 351.685 20.8465C350.858 21.7598 350.191 22.805 349.709 23.9386C349.453 24.4576 349.238 24.996 349.067 25.5489C348.886 26.0447 348.815 26.574 348.859 27.0999C349.094 28.0563 349.425 28.9864 349.847 29.8759C350.598 31.5455 351.29 32.8397 351.754 33.7782C352.013 34.2433 352.241 34.7251 352.436 35.2205C352.105 34.8044 351.813 34.3578 351.566 33.8868C351.053 32.9977 350.312 31.7036 349.511 30.034C349.049 29.1248 348.688 28.1673 348.435 27.179C348.363 26.5894 348.427 25.9913 348.622 25.4304C348.802 24.8547 349.016 24.2905 349.265 23.7411C349.776 22.5404 350.491 21.4373 351.379 20.481C351.519 20.3535 351.675 20.244 351.843 20.1549C352.004 20.0798 352.169 20.0138 352.337 19.9574C352.663 19.8487 352.999 19.7499 353.325 19.661C353.983 19.4766 354.642 19.2988 355.301 19.1275L357.859 18.5249H357.998L358.087 18.6138C358.396 18.9025 358.616 19.273 358.723 19.6823C358.83 20.0915 358.818 20.5227 358.689 20.9255C358.379 21.6307 357.849 22.2164 357.178 22.5951L353.769 24.4919V24.0967C355.007 24.5784 356.121 25.3311 357.029 26.2997C357.726 27.0436 358.252 27.9302 358.571 28.8979C358.683 29.2521 358.762 29.6159 358.808 29.9846C358.858 30.2548 358.878 30.5299 358.867 30.8046C358.877 31.0334 358.857 31.2626 358.808 31.4862Z" fill="#FF9A6C"/>
<path d="M358.778 20.5303C358.246 22.4581 358.055 24.4642 358.215 26.4577C358.214 27.1284 358.44 27.7797 358.857 28.3051C359.089 28.5294 359.372 28.6935 359.682 28.7831C359.992 28.8726 360.319 28.8849 360.635 28.8188C361.273 28.6658 361.849 28.321 362.285 27.8309" fill="#FFBF9D"/>
<path d="M362.315 27.9099C362.315 27.9099 361.999 28.5916 360.902 28.9867C360.573 29.0934 360.222 29.1222 359.88 29.0707C359.537 29.0193 359.211 28.8891 358.927 28.6904C358.621 28.4022 358.38 28.0523 358.22 27.664C358.06 27.2757 357.984 26.8577 357.998 26.4379C357.759 24.4236 358.045 22.3817 358.828 20.5105C358.554 22.4538 358.448 24.4172 358.512 26.3787C358.496 26.7294 358.551 27.0798 358.673 27.4089C358.795 27.7381 358.982 28.0395 359.223 28.2952C359.451 28.4605 359.712 28.5751 359.988 28.6313C360.264 28.6875 360.549 28.6841 360.823 28.6212C361.346 28.4426 361.847 28.2039 362.315 27.9099Z" fill="#FF9A6C"/>
<path d="M354.54 24.1064C354.289 24.7994 354.234 25.548 354.381 26.27C354.382 26.7347 354.528 27.1876 354.799 27.5651C355.07 27.9425 355.453 28.2255 355.893 28.3742C356.644 28.552 357.612 27.5542 358.056 26.5071" fill="#FFBF9D"/>
<path d="M358.057 26.5071C358.107 26.5071 358.057 27.0011 357.593 27.6234C357.343 28.0027 357.004 28.3147 356.605 28.5323C356.316 28.6463 355.995 28.6463 355.706 28.5323C355.41 28.4338 355.142 28.2642 354.926 28.0384C354.531 27.6211 354.281 27.0875 354.214 26.517C354.192 26.0826 354.192 25.6473 354.214 25.213C354.214 24.4325 354.58 24.0373 354.619 24.067C354.659 24.0966 354.531 24.5313 354.619 25.213L354.758 26.4478C354.839 26.9098 355.052 27.3385 355.37 27.6827C355.533 27.8466 355.728 27.9745 355.943 28.0581C356.124 28.1322 356.326 28.1322 356.506 28.0581C356.86 27.8977 357.173 27.6616 357.425 27.3666C357.781 26.8825 357.978 26.4775 358.057 26.5071Z" fill="#FF9A6C"/>
<path d="M364.042 21.5083C362.955 22.6882 362.166 24.1108 361.74 25.6575C361.577 26.0423 361.521 26.4641 361.579 26.8782C361.636 27.2922 361.805 27.6829 362.066 28.0087C362.431 28.2524 362.863 28.3749 363.301 28.359C363.739 28.343 364.161 28.1893 364.507 27.9198C365.072 27.565 365.558 27.0979 365.936 26.5472C366.313 25.9966 366.573 25.3743 366.7 24.719" fill="#FFBF9D"/>
<path d="M366.701 24.7192C366.726 25.4312 366.502 26.1296 366.069 26.695C365.652 27.3519 365.078 27.895 364.399 28.2756C363.981 28.5055 363.513 28.6309 363.036 28.6412C362.76 28.6466 362.486 28.5825 362.241 28.4547C361.996 28.327 361.787 28.1397 361.633 27.9101C361.365 27.4549 361.264 26.9204 361.347 26.3986C361.403 25.9492 361.512 25.5081 361.673 25.0847C361.922 24.3888 362.253 23.7255 362.661 23.1089C362.993 22.4984 363.463 21.974 364.034 21.5776C364.093 21.6369 363.569 22.2198 362.967 23.2966C362.617 23.9244 362.332 24.5865 362.117 25.2724C361.975 25.6645 361.882 26.0726 361.841 26.4875C361.781 26.8947 361.853 27.3104 362.048 27.673C362.493 28.3744 363.51 28.2361 364.172 27.8904C364.796 27.5621 365.336 27.0958 365.753 26.527C366.121 25.9531 366.438 25.3482 366.701 24.7192Z" fill="#FF9A6C"/>
<path d="M310.42 102.981C310.42 102.981 315.774 97.2018 317.888 95.9077C320.003 94.6135 333.932 78.0068 335.404 73.6403C336.876 69.2737 350.539 34.1932 350.223 34.6674C349.907 35.1416 367.57 38.372 367.57 38.372C367.57 38.372 354.481 78.8762 352.88 83.4601C349.995 91.8474 335.7 108.829 327.56 119.025C324.083 123.362 319.281 137.252 319.281 137.252L310.42 102.981Z" fill="#263238"/>
<path d="M323.182 124.764C322.916 123.725 322.748 122.664 322.678 121.593C322.451 119.617 322.243 116.891 322.194 113.868C322.144 110.845 322.253 108.098 322.411 106.123C322.451 105.05 322.583 103.982 322.806 102.932C322.882 104.001 322.882 105.073 322.806 106.142C322.737 108.118 322.688 110.845 322.737 113.858C322.786 116.871 322.935 119.588 323.073 121.564C323.187 122.626 323.223 123.696 323.182 124.764Z" fill="#455A64"/>
<path d="M234.874 330.96L227.347 346.302L226.359 350.056C226.359 350.056 231.387 372.847 228.246 375.1L205.84 338.933L211.609 335.297L218.791 319.965L234.874 330.96Z" fill="#455A64"/>
<path d="M205.898 338.933L208.734 337.302L229.154 372.59C229.154 372.59 229.49 374.616 228.304 375.1L205.898 338.933Z" fill="#263238"/>
<path d="M226.972 350.531C226.794 350.629 226.172 349.8 225.095 349.256C224.018 348.713 223.03 348.703 223.001 348.495C222.971 348.288 224.097 347.952 225.381 348.624C226.666 349.296 227.13 350.471 226.972 350.531Z" fill="#263238"/>
<path d="M227.82 355.302C227.682 355.44 226.921 354.857 225.845 354.69C224.768 354.522 223.869 354.828 223.81 354.69C223.75 354.551 224.59 353.8 225.924 354.028C227.257 354.255 227.959 355.144 227.82 355.302Z" fill="#263238"/>
<path d="M224.857 360.084C224.719 359.945 225.411 359.175 226.606 359.096C227.801 359.017 228.671 359.58 228.582 359.738C228.493 359.896 227.683 359.738 226.705 359.807C225.727 359.876 224.996 360.242 224.857 360.084Z" fill="#263238"/>
<path d="M311.654 218.092C310.923 219.831 273.126 277.692 265.371 284.124C257.616 290.555 231.15 343.329 231.15 343.329C231.15 343.329 209.524 332.847 209.04 333.983C208.556 335.119 224.205 296.729 233.54 280.962C242.876 265.195 247.233 259.1 247.233 259.1L265.805 209.576C265.805 209.576 266.191 193.266 268.571 186.923C270.952 180.581 277.947 175.069 277.947 175.069L311.654 218.092Z" fill="#263238"/>
<path d="M277.61 288.016L257.506 289.458C257.506 289.458 252.35 311.479 248.615 312.131L244.189 271.133L275.407 267.537L277.61 288.016Z" fill="#455A64"/>
<path d="M257.834 276.596C257.697 276.207 257.414 275.887 257.046 275.703C256.677 275.519 256.251 275.484 255.858 275.608C255.49 275.768 255.194 276.057 255.026 276.422C254.858 276.787 254.831 277.2 254.949 277.584C255.105 277.977 255.403 278.297 255.783 278.48C256.164 278.663 256.6 278.696 257.004 278.572C257.377 278.362 257.658 278.021 257.791 277.615C257.925 277.209 257.901 276.768 257.725 276.378" fill="#E0E0E0"/>
<path d="M244.24 271.132L247.402 270.905L250.454 310.293C250.454 310.293 249.901 312.2 248.666 312.131L244.24 271.132Z" fill="#263238"/>
<path d="M257.785 290.1C257.587 290.1 257.4 289.112 256.678 288.203C255.957 287.295 255.108 286.85 255.167 286.652C255.226 286.455 256.352 286.652 257.202 287.769C258.052 288.885 257.963 290.1 257.785 290.1Z" fill="#263238"/>
<path d="M256.607 294.586C256.43 294.645 256.015 293.815 255.135 293.222C254.256 292.63 253.387 292.531 253.377 292.333C253.367 292.136 254.424 291.889 255.501 292.639C256.578 293.39 256.736 294.556 256.607 294.586Z" fill="#263238"/>
<path d="M251.944 297.559C251.885 297.381 252.804 296.996 253.92 297.401C255.036 297.806 255.52 298.685 255.372 298.794C255.224 298.903 254.611 298.379 253.703 298.063C252.794 297.747 251.984 297.757 251.944 297.559Z" fill="#263238"/>
<path d="M262.318 289.231C262.14 289.172 262.318 288.243 262.111 287.097C261.903 285.951 261.478 285.121 261.626 285.003C261.775 284.884 262.555 285.655 262.763 286.978C262.97 288.302 262.535 289.31 262.318 289.231Z" fill="#263238"/>
<path d="M260.007 202.918C260.007 202.918 259.958 222.201 268.711 228.712C277.464 235.222 307.812 259.722 307.812 259.722L259.355 268.001L262.981 290.466C262.981 290.466 328.39 283.867 336.392 281.189C344.394 278.512 350.154 264.968 343.891 255.504C340.739 250.782 308.178 204.488 308.178 204.488L307.19 192.07L266.142 194.659L260.007 202.918Z" fill="#263238"/>
<path d="M262.981 290.466C262.939 290.341 262.91 290.212 262.892 290.081C262.833 289.784 262.764 289.399 262.675 288.915C262.487 287.858 262.23 286.366 261.904 284.45C261.252 280.498 260.314 274.926 259.168 268.031V267.843H259.356L303.594 260.216L307.793 259.495L307.674 259.95C300.848 254.309 294.357 248.994 288.44 244.222L280.023 237.504C277.385 235.42 274.846 233.553 272.752 231.577C269.422 228.531 266.521 225.049 264.127 221.224C263.481 220.186 262.897 219.11 262.379 218.003C262.191 217.628 262.072 217.331 261.993 217.134C261.945 217.037 261.912 216.934 261.895 216.827C261.953 216.918 262.003 217.014 262.043 217.114C262.132 217.311 262.27 217.598 262.468 217.963C263.018 219.045 263.625 220.097 264.285 221.115C266.732 224.879 269.658 228.31 272.989 231.32C275.083 233.246 277.622 235.084 280.27 237.168C282.917 239.253 285.762 241.476 288.726 243.847C294.654 248.608 301.174 253.904 308 259.544L308.435 259.9L307.882 259.989L303.683 260.71L259.425 268.208L259.583 267.991C260.66 274.906 261.559 280.518 262.142 284.43C262.428 286.356 262.655 287.858 262.813 288.915C262.882 289.409 262.932 289.794 262.971 290.091C262.989 290.215 262.992 290.341 262.981 290.466Z" fill="#455A64"/>
<path d="M320.882 261.115C320.882 261.263 318.007 260.424 314.411 260.048C310.815 259.673 307.861 259.88 307.852 259.722C308.476 259.53 309.125 259.433 309.778 259.436C311.339 259.339 312.906 259.376 314.461 259.544C316.018 259.701 317.559 259.995 319.064 260.424C319.704 260.552 320.318 260.786 320.882 261.115Z" fill="#455A64"/>
<path d="M290.968 41.148C291.262 40.2681 291.82 39.5003 292.566 38.9488C293.312 38.3973 294.21 38.0889 295.137 38.0657C296.069 37.0543 297.314 36.3849 298.671 36.1646C300.029 35.9443 301.421 36.1858 302.625 36.8506C303.344 36.2416 304.207 35.828 305.131 35.6495C306.056 35.4709 307.011 35.5336 307.905 35.8314C308.798 36.1292 309.6 36.6521 310.232 37.3497C310.865 38.0473 311.307 38.8961 311.516 39.8143C312.427 39.5145 313.407 39.5005 314.325 39.7742C315.244 40.048 316.056 40.5963 316.654 41.3456C317.226 42.1185 317.551 43.0471 317.584 44.0084C317.618 44.9698 317.359 45.9187 316.841 46.7297C317.928 46.8752 318.923 47.4193 319.632 48.2564C320.34 49.0935 320.713 50.164 320.677 51.2603C320.642 52.3566 320.2 53.4005 319.438 54.1898C318.677 54.979 317.649 55.4573 316.555 55.5319L292.697 46.0875C291.935 45.5428 291.36 44.7758 291.05 43.8916C290.741 43.0074 290.712 42.0491 290.968 41.148Z" fill="#263238"/>
<path d="M317.364 56.0258C316.156 51.4826 313.288 47.558 309.326 45.028C305.363 42.4981 300.596 41.5471 295.966 42.3631L294.978 42.531C284.833 45.0008 283.321 55.0873 286.087 65.2529L293.961 103.386L312.83 114.599L315.102 106.271V92.6969C315.102 92.6969 324.685 89.3677 323.005 79.4293C322.165 74.5787 319.696 64.8577 317.364 56.0258Z" fill="#FFBF9D"/>
<path d="M315.152 92.6178C310.572 93.4502 305.85 92.9461 301.549 91.1655C301.549 91.1655 305.412 98.2982 315.083 95.6111L315.152 92.6178Z" fill="#FF9A6C"/>
<path d="M316.14 65.3714C316.213 65.738 316.139 66.1186 315.934 66.431C315.728 66.7435 315.409 66.9626 315.043 67.041C314.868 67.0884 314.685 67.1004 314.505 67.0762C314.325 67.052 314.152 66.9921 313.996 66.9001C313.839 66.8081 313.703 66.6858 313.594 66.5403C313.486 66.3949 313.407 66.2292 313.364 66.0531C313.29 65.6853 313.364 65.3034 313.569 64.9894C313.774 64.6754 314.094 64.4543 314.46 64.3737C314.636 64.3264 314.82 64.3148 315 64.3396C315.18 64.3644 315.354 64.4252 315.51 64.5182C315.667 64.6112 315.803 64.7346 315.911 64.8811C316.02 65.0277 316.097 65.1944 316.14 65.3714Z" fill="#263238"/>
<path d="M316.327 61.7458C316.179 61.9631 314.973 61.3605 313.462 61.647C311.95 61.9335 310.943 62.8819 310.775 62.7337C310.607 62.5855 310.775 62.299 311.219 61.8545C311.787 61.2756 312.524 60.8916 313.324 60.7579C314.111 60.6108 314.926 60.7216 315.645 61.074C316.179 61.3408 316.396 61.647 316.327 61.7458Z" fill="#263238"/>
<path d="M302.911 68.3551C302.984 68.7229 302.911 69.1048 302.706 69.4188C302.501 69.7328 302.181 69.9539 301.814 70.0346C301.639 70.0806 301.457 70.0915 301.277 70.0667C301.098 70.0419 300.925 69.9819 300.769 69.8901C300.613 69.7982 300.477 69.6765 300.368 69.5317C300.259 69.387 300.18 69.2221 300.135 69.0466C300.062 68.6801 300.136 68.2995 300.341 67.987C300.546 67.6746 300.866 67.4555 301.232 67.3771C301.406 67.3295 301.588 67.3172 301.768 67.3407C301.947 67.3643 302.12 67.4233 302.276 67.5143C302.432 67.6053 302.569 67.7266 302.678 67.8709C302.787 68.0153 302.866 68.1799 302.911 68.3551Z" fill="#263238"/>
<path d="M301.795 64.1663C301.647 64.3836 300.441 63.7909 298.93 64.0675C297.418 64.3441 296.44 65.3122 296.243 65.1542C296.045 64.9961 296.243 64.7195 296.677 64.2749C297.253 63.7007 297.991 63.3178 298.792 63.1784C299.579 63.0319 300.393 63.1428 301.113 63.4945C301.647 63.7711 301.864 64.0675 301.795 64.1663Z" fill="#263238"/>
<path d="M308.83 74.5588C309.581 74.1577 310.381 73.8556 311.21 73.6598C311.596 73.5511 311.942 73.4128 311.961 73.1362C311.925 72.7282 311.763 72.3415 311.497 72.0298L309.808 69.2735C307.456 65.3219 305.678 62.0815 305.856 61.9828C306.034 61.884 308.049 65.0057 310.4 68.8981C310.973 69.886 311.527 70.7949 312.04 71.684C312.371 72.1096 312.542 72.6373 312.524 73.1757C312.493 73.3224 312.429 73.46 312.336 73.5781C312.244 73.6962 312.126 73.7917 311.991 73.8574C311.787 73.9577 311.571 74.0307 311.349 74.0747C310.532 74.3371 309.686 74.4996 308.83 74.5588Z" fill="#263238"/>
<path d="M304.561 76.4261C304.808 76.3668 305.115 78.0166 306.735 78.9354C308.355 79.8542 310.074 79.3503 310.123 79.5775C310.173 79.8048 309.797 79.9727 309.056 80.1308C308.095 80.3163 307.098 80.159 306.241 79.6862C305.418 79.2212 304.806 78.4569 304.532 77.5523C304.344 76.8707 304.453 76.436 304.561 76.4261Z" fill="#263238"/>
<path d="M301.064 59.8094C300.956 60.2441 299.582 60.1256 298.002 60.4417C296.421 60.7578 295.157 61.3209 294.929 60.9554C294.821 60.7875 295.018 60.3725 295.512 59.9675C296.146 59.4397 296.905 59.0826 297.715 58.9302C298.526 58.7671 299.367 58.8286 300.146 59.108C300.748 59.2957 301.064 59.6119 301.064 59.8094Z" fill="#263238"/>
<path d="M315.221 57.6361C315.053 58.0411 313.936 57.9621 312.692 58.2782C311.447 58.5943 310.479 59.1179 310.143 58.8216C309.995 58.6833 310.064 58.298 310.439 57.8337C310.944 57.2782 311.603 56.887 312.332 56.7109C313.062 56.5347 313.827 56.5817 314.529 56.8458C315.053 57.1224 315.29 57.4385 315.221 57.6361Z" fill="#263238"/>
<path d="M315.588 51.6493C315.588 51.6493 311.863 45.9096 308.623 45.0106C304.671 43.9042 303.871 48.1719 300.255 47.8261C296.639 47.4804 292.905 46.4233 289.872 49.7328C286.563 53.3584 288.736 55.0774 289.299 59.5229C291.572 77.5325 289.299 83.1734 286.81 74.9343C286.543 74.0353 283.846 73.7587 282.779 69.9355C281.376 64.9959 280.072 58.9006 280.547 55.1169C280.942 51.9259 282.265 49.5352 284.923 46.6802C289.102 42.1654 295.741 40.8812 300.334 40.5156C304.928 40.1501 314.59 43.8054 315.588 51.6493Z" fill="#263238"/>
<path d="M288.636 74.322C288.558 73.9617 288.409 73.6208 288.196 73.32C287.983 73.0191 287.712 72.7645 287.398 72.5715C287.084 72.3785 286.734 72.2512 286.37 72.1972C286.005 72.1432 285.633 72.1636 285.277 72.2573C283.469 72.7611 281.612 74.2331 282.422 77.9871C283.874 84.7246 290.325 81.8894 290.276 81.6918C290.226 81.4942 289.268 77.1375 288.636 74.322Z" fill="#FFBF9D"/>
<path d="M288.271 79.4688C288.271 79.4688 288.172 79.5775 287.994 79.7158C287.741 79.8913 287.429 79.9621 287.125 79.9134C286.638 79.7265 286.208 79.4144 285.881 79.0085C285.553 78.6025 285.338 78.1173 285.258 77.6017C285.126 77.023 285.126 76.4219 285.258 75.8432C285.274 75.6203 285.345 75.4048 285.464 75.2154C285.583 75.026 285.746 74.8685 285.939 74.7565C286.067 74.693 286.213 74.676 286.352 74.7084C286.491 74.7409 286.614 74.8208 286.7 74.9343C286.828 75.1023 286.819 75.2406 286.848 75.2505C286.878 75.2603 286.967 75.1023 286.848 74.8355C286.774 74.6773 286.649 74.5486 286.493 74.47C286.385 74.4252 286.269 74.4021 286.152 74.4021C286.035 74.4021 285.919 74.4252 285.811 74.47C285.55 74.5867 285.322 74.7674 285.15 74.9953C284.977 75.2233 284.865 75.4911 284.823 75.7741C284.663 76.423 284.663 77.101 284.823 77.7499C284.919 78.3565 285.191 78.9216 285.606 79.3748C286.02 79.828 286.559 80.1493 287.155 80.2987C287.34 80.306 287.524 80.2727 287.695 80.201C287.865 80.1293 288.018 80.021 288.142 79.8837C288.291 79.6763 288.3 79.4787 288.271 79.4688Z" fill="#FF9A6C"/>
<path d="M285.13 61.3901C286.08 61.9165 287.147 62.1951 288.232 62.2002C288.768 62.1827 289.28 61.9738 289.675 61.6113C290.07 61.2488 290.322 60.7568 290.386 60.2244C290.386 59.7403 290.168 59.2365 290.386 58.7919C290.603 58.3473 291.374 58.3078 291.957 58.2683C292.964 58.1628 293.903 57.7113 294.615 56.9908C295.326 56.2702 295.766 55.3251 295.859 54.3167C296.22 54.5981 296.673 54.733 297.129 54.6946C297.585 54.6561 298.01 54.4471 298.319 54.1092C298.916 53.4102 299.415 52.6323 299.801 51.7975C299.994 51.3811 300.287 51.0188 300.654 50.7431C301.021 50.4673 301.451 50.2865 301.905 50.2169C302.408 50.2955 302.918 50.3154 303.426 50.2762C304.296 50.0391 304.543 48.9128 304.513 48.004C304.483 47.0951 304.404 46.0282 305.066 45.4354C305.78 44.9848 306.632 44.806 307.467 44.9316C308.297 44.9316 309.314 44.5167 309.383 43.6769C309.379 43.456 309.33 43.2382 309.24 43.0363C309.15 42.8344 309.021 42.6526 308.86 42.5013C308.166 41.7796 307.247 41.3151 306.254 41.1841C305.262 41.053 304.254 41.2632 303.397 41.7802C302.87 40.7091 302.035 39.8199 300.999 39.227C299.963 38.634 298.773 38.3642 297.583 38.4524C296.392 38.5405 295.255 38.9825 294.318 39.7216C293.381 40.4607 292.686 41.4631 292.322 42.6001C291.489 42.0749 290.54 41.7602 289.558 41.6832C288.576 41.6062 287.59 41.7692 286.685 42.1581C285.779 42.5469 284.983 43.1501 284.362 43.9155C283.742 44.6809 283.317 45.5857 283.125 46.5517C282.26 46.4959 281.397 46.6909 280.64 47.1132C279.883 47.5355 279.264 48.1672 278.857 48.9326C278.471 49.7111 278.315 50.5832 278.406 51.4473C278.497 52.3113 278.831 53.1317 279.371 53.8129C278.799 54.2404 278.345 54.8068 278.053 55.4585C277.761 56.1103 277.64 56.8257 277.701 57.5373C277.928 58.9401 279.539 60.0959 280.823 59.5131C280.683 60.1073 280.759 60.7319 281.038 61.275C281.317 61.8181 281.78 62.2442 282.344 62.4768C282.935 62.6666 283.574 62.6337 284.142 62.3843C284.71 62.135 285.167 61.6865 285.427 61.1234" fill="#263238"/>
<path d="M280.318 59.5427C280.335 59.7836 280.403 60.0182 280.517 60.231C280.631 60.4439 280.789 60.6302 280.98 60.7775C281.39 61.1449 281.922 61.3458 282.472 61.3406C282.825 61.3327 283.171 61.2472 283.487 61.0901C283.803 60.933 284.08 60.7082 284.3 60.4318H284.003C284.476 61.0076 285.04 61.5016 285.673 61.8939C286.092 62.1597 286.558 62.344 287.046 62.4372C287.506 62.5196 287.98 62.4787 288.419 62.3187C288.806 62.2179 289.167 62.0328 289.474 61.7766C289.781 61.5204 290.028 61.1995 290.197 60.8368C290.389 60.356 290.486 59.8429 290.484 59.3253C290.484 58.9598 290.484 58.7622 290.435 58.7622C290.374 58.9376 290.338 59.1204 290.326 59.3056C290.275 59.7911 290.145 60.2651 289.941 60.7084C289.744 61.0431 289.48 61.333 289.165 61.5593C288.85 61.7857 288.491 61.9436 288.112 62.0227C287.732 62.1018 287.34 62.1004 286.96 62.0187C286.581 61.937 286.223 61.7766 285.91 61.5481C285.298 61.1823 284.745 60.726 284.27 60.1947L284.112 60.0168L283.974 60.2045C283.791 60.4415 283.56 60.6364 283.296 60.7762C283.032 60.916 282.741 60.9973 282.442 61.0146C281.961 61.0405 281.487 60.8894 281.109 60.5898C280.778 60.2966 280.51 59.9407 280.318 59.5427Z" fill="#455A64"/>
<path d="M290.268 41.7506C290.268 41.7506 290.455 41.7506 290.771 41.8396C291.239 41.9437 291.663 42.1885 291.987 42.541L292.085 42.6595L292.154 42.5113C292.796 41.2144 293.754 40.1 294.94 39.271C295.698 38.7297 296.564 38.359 297.479 38.1843C298.476 38.0056 299.502 38.1083 300.443 38.4807C301.187 38.7744 301.86 39.2222 302.419 39.7946C302.937 40.3327 303.319 40.9862 303.535 41.7013L303.594 41.9186L303.792 41.8198C304.59 41.4321 305.5 41.3404 306.359 41.5611C307.219 41.7819 307.972 42.3007 308.485 43.025C308.885 43.6193 309.151 44.2934 309.265 45.0009C309.306 44.8121 309.306 44.6166 309.265 44.4279C309.175 43.8974 308.973 43.3922 308.672 42.946C308.223 42.2374 307.553 41.696 306.766 41.4049C306.263 41.2191 305.728 41.1348 305.192 41.1568C304.656 41.1788 304.13 41.3068 303.644 41.5333L303.891 41.6519C303.676 40.8691 303.268 40.1525 302.705 39.5674C302.024 38.8633 301.181 38.3374 300.249 38.036C299.317 37.7345 298.325 37.6667 297.361 37.8385C296.399 38.0349 295.49 38.4322 294.693 39.0043C293.475 39.879 292.516 41.0669 291.917 42.4422H292.095C291.729 42.0778 291.254 41.8421 290.742 41.7704C290.445 41.6815 290.268 41.7309 290.268 41.7506Z" fill="#455A64"/>
<path d="M301.527 206.435C302.466 206.514 305.677 207.65 309.846 199.934C314.014 192.219 318.016 163.648 318.016 163.648L301.527 206.435Z" fill="#E0E0E0"/>
<path d="M319.518 152.633L319.992 125.021L314.44 103.89C314.44 103.89 310.557 97.8044 306.319 94.7122C303.582 92.6164 300.456 91.0852 297.122 90.2074L290.76 88.6663L290.078 93.9417L308.542 115.122L319.518 152.633Z" fill="#E0E0E0"/>
<path d="M290.197 90.5432C290.197 90.5432 305.391 91.8473 312.741 110.212C316.693 120.091 319.094 146.518 319.558 150.647C320.022 154.777 318.471 164.251 315.656 177.015C315.102 179.494 313.117 186.014 307.703 201.831C301.904 218.744 297.281 231.231 297.281 231.231L248.695 212.461L272.86 170.08C272.86 170.08 271.585 157.019 271.644 155.775C272.109 146.064 270.222 140.6 273.432 121.939C274.376 116.361 276.335 111.003 279.212 106.132C282.274 100.985 284.537 99.4442 289.733 95.5717L290.197 90.5432Z" fill="#263238"/>
<path d="M295.394 206.306L296.678 196.062L273.511 186.667L269.283 196.457L295.394 206.306Z" fill="#263238"/>
<path d="M295.393 206.306L294.87 206.079L293.388 205.486L287.925 203.352L269.372 196.249L269.52 196.585L273.116 188.297L273.758 186.795L273.412 186.943L296.608 196.249L296.5 196.061C296.154 199.173 295.867 201.712 295.67 203.52C295.581 204.38 295.512 205.061 295.452 205.585C295.393 206.108 295.383 206.316 295.393 206.326C295.45 206.109 295.49 205.887 295.512 205.664C295.591 205.16 295.69 204.498 295.808 203.688C296.065 201.851 296.421 199.282 296.855 196.121V195.982L296.727 195.933L273.59 186.459L273.402 186.37L273.304 186.607C273.096 187.101 272.879 187.595 272.661 188.099C271.417 190.984 270.211 193.779 269.085 196.407L268.977 196.654L269.224 196.743L288.053 203.718L293.496 205.694L294.939 206.207C295.087 206.254 295.239 206.287 295.393 206.306Z" fill="#455A64"/>
<path d="M314.597 180.443C314.583 180.534 314.56 180.623 314.528 180.71L314.291 181.47L313.303 184.434C312.444 187.012 311.229 190.678 309.717 195.182L297.714 230.589L297.457 231.34L297.368 231.597L297.121 231.498L262.762 218.131L252.399 214.032L249.593 212.896L248.872 212.589L248.625 212.461L248.892 212.54L249.633 212.797L252.468 213.844L262.89 217.796L297.299 231.034L296.963 231.192C297.052 230.955 297.131 230.698 297.22 230.441C301.962 216.61 306.259 204.162 309.381 195.074C310.942 190.589 312.217 186.943 313.116 184.375L314.202 181.431C314.311 181.125 314.41 180.878 314.479 180.68C314.548 180.482 314.588 180.443 314.597 180.443Z" fill="#455A64"/>
<path d="M243.184 234.54C243.184 234.54 248.923 215.839 253.813 214.565C258.704 213.29 265.165 213.093 266.301 216.284C267.699 220.307 268.335 224.555 268.178 228.81C267.847 232.728 267.203 236.613 266.251 240.428L261.262 238.877C261.262 238.877 265.214 219.89 264.157 216.778C263.1 213.666 254.861 214.417 253.349 217.647C251.838 220.878 247.036 235.726 247.036 235.726L243.184 234.54Z" fill="#455A64"/>
<path d="M220.254 258.072C222.003 250.238 226.093 233.009 227.9 225.471C228.137 224.479 228.748 223.616 229.606 223.063C230.464 222.511 231.503 222.312 232.504 222.508L279.331 231.735C280.337 231.934 281.225 232.516 281.81 233.359C282.394 234.201 282.628 235.238 282.463 236.249L277.177 268.791C277.093 269.312 276.905 269.81 276.625 270.257C276.345 270.704 275.978 271.09 275.546 271.393C275.114 271.696 274.626 271.91 274.111 272.021C273.595 272.132 273.062 272.139 272.544 272.041L223.396 262.824C222.872 262.728 222.374 262.527 221.93 262.234C221.487 261.941 221.107 261.561 220.813 261.117C220.52 260.673 220.319 260.175 220.223 259.652C220.127 259.129 220.138 258.591 220.254 258.072Z" fill="#455A64"/>
<path d="M277.642 243.728L277.583 244.074C277.533 244.321 277.474 244.677 277.385 245.121C277.207 246.06 276.94 247.413 276.595 249.162L273.631 264.089L273.394 265.294C273.339 265.73 273.161 266.141 272.88 266.48C272.583 266.825 272.186 267.07 271.744 267.181C271.298 267.271 270.837 267.251 270.4 267.122L265.046 266.084L253.191 263.802L240.141 261.263L233.226 259.92L229.699 259.228L228.81 259.06C228.495 259.016 228.187 258.937 227.891 258.823C227.585 258.689 227.314 258.487 227.098 258.231C226.882 257.976 226.728 257.675 226.646 257.351C226.592 257.071 226.592 256.782 226.646 256.502C226.646 256.215 226.755 255.978 226.804 255.721L227.13 254.19L227.782 251.157C228.207 249.181 228.632 247.206 229.047 245.23C229.89 241.324 230.696 237.567 231.467 233.958V233.79H231.635C244.942 237.198 256.451 239.628 264.611 241.239C268.701 242.039 271.951 242.641 274.174 243.046L276.743 243.521L277.385 243.649L277.602 243.698H277.365L276.703 243.6L274.154 243.185C271.922 242.809 268.672 242.246 264.582 241.466C256.392 239.925 244.873 237.514 231.546 234.145L231.754 234.017C230.993 237.623 230.183 241.397 229.353 245.299C228.938 247.275 228.513 249.251 228.088 251.226C227.871 252.214 227.654 253.202 227.436 254.259L227.11 255.781C226.951 256.254 226.91 256.76 226.992 257.253C227.063 257.522 227.193 257.773 227.372 257.986C227.551 258.2 227.776 258.371 228.029 258.487C228.303 258.591 228.588 258.661 228.879 258.695L229.768 258.873L233.295 259.564L240.21 260.908L253.27 263.467L265.125 265.788L270.479 266.845C270.877 266.962 271.297 266.983 271.704 266.904C272.088 266.811 272.433 266.6 272.692 266.302C272.942 265.997 273.1 265.626 273.147 265.235C273.236 264.83 273.315 264.435 273.394 264.049C274.688 257.786 275.745 252.728 276.466 249.231C276.842 247.482 277.128 246.119 277.326 245.18C277.424 244.726 277.504 244.37 277.553 244.113C277.602 243.857 277.642 243.728 277.642 243.728Z" fill="#263238"/>
<path d="M260.183 261.935C260.183 261.935 260.47 261.985 261.023 261.985C261.825 261.959 262.602 261.705 263.265 261.253C263.779 260.884 264.206 260.408 264.517 259.857C264.828 259.306 265.014 258.693 265.063 258.063C265.35 256.591 265.686 254.921 266.051 253.074C266.239 252.145 266.427 251.177 266.624 250.169C266.91 249.161 266.808 248.083 266.338 247.146C266.081 246.661 265.726 246.235 265.296 245.895C264.866 245.555 264.369 245.308 263.838 245.17C262.712 244.923 261.497 244.696 260.282 244.449L244.387 241.268C243.718 241.135 243.027 241.177 242.379 241.39C241.732 241.603 241.151 241.979 240.692 242.483C240.237 242.975 239.92 243.578 239.773 244.232L239.358 246.208L238.568 250.159C238.443 250.818 238.314 251.45 238.183 252.056C238.042 252.662 237.937 253.276 237.866 253.894C237.835 254.478 237.934 255.062 238.156 255.604C238.378 256.145 238.718 256.631 239.151 257.025C239.569 257.398 240.06 257.681 240.593 257.855C241.107 258.013 241.69 258.102 242.223 258.221L248.259 259.456L257.002 261.273L259.373 261.787L259.986 261.925L260.193 261.985H259.976L259.353 261.876L256.973 261.431L248.21 259.722L242.154 258.487C241.611 258.369 241.067 258.3 240.484 258.132C239.908 257.948 239.379 257.641 238.933 257.233C238.461 256.81 238.09 256.288 237.845 255.703C237.601 255.119 237.49 254.487 237.521 253.854C237.594 253.22 237.703 252.59 237.847 251.967C237.975 251.345 238.094 250.713 238.222 250.07C238.479 248.796 238.746 247.492 239.012 246.119C239.141 245.457 239.279 244.785 239.417 244.143C239.579 243.434 239.919 242.778 240.405 242.236C240.907 241.687 241.54 241.276 242.246 241.043C242.952 240.809 243.706 240.761 244.436 240.903L260.331 244.113C261.547 244.37 262.732 244.588 263.898 244.854C264.474 245.009 265.011 245.284 265.474 245.66C265.937 246.036 266.315 246.505 266.585 247.038C267.078 248.038 267.181 249.186 266.871 250.258C266.664 251.246 266.466 252.234 266.279 253.153C265.903 254.99 265.557 256.66 265.291 258.092C265.212 258.458 265.143 258.813 265.044 259.159C264.937 259.482 264.791 259.791 264.609 260.078C264.297 260.589 263.876 261.025 263.374 261.352C262.686 261.808 261.878 262.049 261.053 262.044C260.759 262.048 260.467 262.011 260.183 261.935Z" fill="#263238"/>
<g opacity="0.3">
<path d="M227.75 258.626C240.927 265.526 255.834 268.421 270.635 266.954L227.75 258.626Z" fill="black"/>
</g>
<path d="M257.16 248.865L251.667 247.759C251.461 247.717 251.265 247.636 251.09 247.519C250.915 247.401 250.765 247.251 250.649 247.076C250.532 246.9 250.451 246.704 250.411 246.497C250.37 246.291 250.371 246.078 250.413 245.872C250.499 245.458 250.743 245.095 251.094 244.86C251.446 244.626 251.875 244.538 252.29 244.617L257.812 245.733C258.018 245.774 258.214 245.854 258.389 245.97C258.564 246.087 258.714 246.236 258.83 246.411C258.947 246.585 259.028 246.781 259.068 246.987C259.109 247.193 259.108 247.405 259.067 247.61C259.027 247.82 258.945 248.018 258.827 248.195C258.709 248.373 258.557 248.524 258.379 248.641C258.201 248.758 258.001 248.838 257.792 248.877C257.583 248.915 257.368 248.911 257.16 248.865Z" fill="#E0E0E0"/>
<path d="M265.935 210.366C266.66 211.468 267.25 212.652 267.693 213.893C267.892 216.117 267.932 218.352 267.812 220.581C267.812 220.581 266.656 221.164 265.717 218.062C265.223 216.571 264.869 215.036 264.66 213.478L265.935 210.366Z" fill="#FFBF9D"/>
<path d="M265.787 220.295L266.004 210.505L262.23 203.263L250.257 203.036L249.832 214.891C249.832 214.891 251.59 219.979 252.43 220.937C253.27 221.895 254.949 221.184 254.949 221.184C255.848 222.607 258.338 222.083 258.338 222.083C259.553 223.535 261.45 222.172 261.45 222.172C261.45 222.172 263.109 223.693 263.87 223.594C264.19 223.518 264.475 223.337 264.68 223.081C265.374 222.316 265.767 221.327 265.787 220.295Z" fill="#FFBF9D"/>
<path d="M254.031 218.655C254.14 218.655 254.426 219.139 254.653 219.821C254.881 220.502 254.989 221.095 254.871 221.135C254.752 221.174 254.475 220.641 254.248 219.959C254.021 219.277 253.912 218.695 254.031 218.655Z" fill="#FF9A6C"/>
<path d="M257.132 218.507C257.432 219.077 257.642 219.69 257.754 220.325C258.002 220.92 258.158 221.55 258.218 222.192C257.768 221.706 257.463 221.104 257.339 220.453C257.085 219.838 257.013 219.162 257.132 218.507Z" fill="#FF9A6C"/>
<path d="M260.669 218.823C260.797 218.823 260.886 219.574 261.064 220.473C261.242 221.372 261.41 222.103 261.291 222.152C261.173 222.201 260.807 221.5 260.63 220.552C260.452 219.603 260.56 218.823 260.669 218.823Z" fill="#FF9A6C"/>
<path d="M265.865 213.577C266.06 214.808 266.116 216.058 266.033 217.302C266.087 218.543 265.997 219.786 265.767 221.006C265.509 218.534 265.543 216.041 265.865 213.577Z" fill="#FF9A6C"/>
<path d="M253.854 216.689C253.854 216.689 253.854 216.867 253.597 216.995C253.313 217.159 252.979 217.212 252.658 217.143C252.334 217.078 252.046 216.895 251.848 216.63C251.7 216.432 251.69 216.264 251.74 216.244C251.789 216.225 252.174 216.61 252.728 216.719C253.281 216.827 253.785 216.59 253.854 216.689Z" fill="#FF9A6C"/>
<path d="M257.467 217.282C257.467 217.282 257.398 217.46 257.161 217.578C256.848 217.706 256.505 217.74 256.173 217.677C255.83 217.614 255.515 217.445 255.274 217.193C255.096 216.986 255.057 216.828 255.096 216.788C255.136 216.748 255.6 217.134 256.252 217.252C256.904 217.371 257.408 217.173 257.467 217.282Z" fill="#FF9A6C"/>
<path d="M264.394 216.561C264.394 216.501 264.671 216.817 264.394 217.242C264.016 217.662 263.486 217.914 262.922 217.944C262.377 217.994 261.831 217.869 261.361 217.588C261.016 217.361 260.877 217.134 260.917 217.094C261.541 217.361 262.213 217.503 262.893 217.509C263.354 217.483 263.797 217.321 264.167 217.045C264.394 216.817 264.335 216.58 264.394 216.561Z" fill="#FF9A6C"/>
<path d="M301.667 124.478C296.964 129.417 267.762 158.067 267.762 158.067C267.762 158.067 266.072 204.399 265.223 204.597C264.373 204.795 247.589 203.421 247.589 203.421C247.589 203.421 245.237 154.303 247.194 148.701C249.15 143.1 274.124 110.351 274.667 109.669C275.211 108.987 278.075 103.979 287.629 101.519C298.822 98.6539 303.524 104.018 305.411 109.521C307.031 114.263 303.939 121.633 302.447 123.608C302.205 123.914 301.945 124.204 301.667 124.478Z" fill="#263238"/>
<path d="M301.668 124.478C301.668 124.478 301.806 124.28 302.103 123.934C302.534 123.415 302.899 122.844 303.19 122.235C304.365 119.915 305.169 117.425 305.57 114.855C305.903 113.016 305.781 111.124 305.215 109.343C304.507 107.231 303.296 105.322 301.688 103.781C300.77 102.956 299.722 102.289 298.586 101.805C297.369 101.32 296.088 101.017 294.782 100.906C291.919 100.779 289.055 101.164 286.326 102.042C283.289 102.913 280.45 104.366 277.968 106.32C276.68 107.392 275.553 108.643 274.619 110.035L271.428 114.253C267.151 119.953 262.606 126.108 257.934 132.579C255.612 135.839 253.231 139.197 250.939 142.695C249.751 144.434 248.672 146.245 247.709 148.118C247.61 148.365 247.482 148.592 247.393 148.839L247.244 149.6C247.123 150.116 247.047 150.642 247.017 151.171L246.879 152.781L246.8 154.401C246.494 163.105 246.741 172.184 246.988 181.391C247.215 188.899 247.501 196.259 247.827 203.392L247.59 203.155L256.61 203.866L261.036 204.172L263.219 204.301L264.306 204.35H265.066C265.293 202.953 265.448 201.545 265.531 200.132C265.619 198.709 265.718 197.306 265.807 195.903C265.965 193.111 266.117 190.364 266.262 187.664C266.805 176.876 267.249 166.918 267.556 158.027V157.948V157.889L292.392 133.428L299.198 126.77L300.977 125.041C301.382 124.656 301.599 124.468 301.599 124.468C301.599 124.468 301.411 124.685 301.016 125.08L299.277 126.849L292.55 133.586L267.852 158.175L267.911 158.037C267.595 166.928 267.21 176.876 266.686 187.674C266.548 190.368 266.403 193.114 266.252 195.913C266.153 197.316 266.064 198.729 265.975 200.151C265.897 201.602 265.736 203.047 265.491 204.478C265.468 204.557 265.431 204.63 265.382 204.696C265.339 204.753 265.275 204.792 265.205 204.804H265.125H264.809H264.256L263.16 204.755L260.966 204.627L256.541 204.32L247.521 203.619H247.294V203.392C246.968 196.249 246.681 188.889 246.454 181.371C246.207 172.124 245.96 163.095 246.276 154.352L246.355 152.722L246.503 151.092C246.535 150.543 246.611 149.998 246.731 149.462L246.909 148.652C247.003 148.392 247.112 148.138 247.235 147.891C248.207 145.993 249.299 144.158 250.504 142.398C252.816 138.881 255.197 135.532 257.528 132.272C262.211 125.762 266.775 119.657 271.073 113.966L274.254 109.778C274.767 109.116 275.242 108.385 275.844 107.802C276.41 107.172 277.024 106.587 277.682 106.053C282.586 102.334 288.621 100.415 294.773 100.62C296.113 100.75 297.425 101.083 298.665 101.608C299.831 102.099 300.903 102.788 301.836 103.643C303.47 105.217 304.695 107.167 305.402 109.323C305.974 111.145 306.086 113.079 305.728 114.954C305.304 117.539 304.463 120.038 303.239 122.354C302.934 122.96 302.552 123.524 302.103 124.033C301.836 124.31 301.668 124.478 301.668 124.478Z" fill="#455A64"/>
<path d="M318.234 145.678C318.139 145.505 318.073 145.319 318.036 145.125C317.908 144.71 317.749 144.137 317.552 143.515C317.127 142.053 316.564 140.018 315.843 137.528C314.42 132.381 312.474 125.317 310.291 117.394V117.286L310.35 117.187C310.893 116.337 311.476 115.429 312.069 114.52L312.514 113.818L312.711 114.213L309.441 113.907H309.273L309.214 113.739C308.631 111.895 307.955 110.082 307.189 108.306C306.512 106.657 305.657 105.087 304.64 103.623C303.617 102.413 302.36 101.421 300.945 100.709C299.641 99.9678 298.386 99.3454 297.241 98.8021C294.929 97.7154 293.042 96.925 291.738 96.3817L290.246 95.7593C290.066 95.7001 289.894 95.6206 289.732 95.5222C289.92 95.5454 290.103 95.5953 290.276 95.6704C290.631 95.789 291.145 95.9668 291.807 96.2137C293.131 96.6978 295.047 97.4388 297.379 98.4859C298.545 99.0194 299.809 99.622 301.143 100.353C302.617 101.07 303.931 102.078 305.005 103.317C306.059 104.796 306.941 106.39 307.633 108.069C308.418 109.86 309.11 111.69 309.708 113.551L309.481 113.374L312.761 113.67H313.175L312.948 114.026L312.504 114.727L310.775 117.394V117.187C312.899 125.14 314.786 132.203 316.159 137.37C316.811 139.879 317.335 141.924 317.72 143.396C317.878 144.068 318.016 144.611 318.115 145.036C318.185 145.243 318.224 145.46 318.234 145.678Z" fill="#455A64"/>
<path d="M314.827 116.16C309.097 119.538 304.444 119.519 294.881 118.709C288.252 118.145 282.443 116.249 275.794 116.041C266.212 115.755 259 118.679 250.306 122.631L243.865 130.237L255.947 133.893C264.114 129.696 273.23 127.695 282.403 128.084C297.222 128.894 311.132 124.853 316.052 121.089L317.741 116.407L317.099 113.957L315.064 113.769L314.827 116.16Z" fill="url(#paint13_linear_544_4162)"/>
<path d="M314.826 116.16C314.826 116.16 314.826 115.952 314.826 115.547C314.826 115.142 314.905 114.559 314.974 113.799V113.729H315.034L317.069 113.897H317.128V113.957C317.316 114.668 317.543 115.488 317.79 116.397C317.316 117.77 316.753 119.361 316.14 121.099C314.694 122.152 313.12 123.019 311.457 123.678C309.555 124.484 307.601 125.164 305.609 125.713C298.211 127.723 290.546 128.573 282.887 128.232C279.957 128.085 277.02 128.177 274.105 128.509C271.029 128.87 267.991 129.502 265.026 130.395C261.924 131.295 258.92 132.499 256.056 133.991H255.957H255.858L248.804 132.035L243.766 130.484L243.391 130.376L243.638 130.079L250.079 122.463H250.128C254.278 120.493 258.571 118.842 262.971 117.523C267.039 116.348 271.264 115.805 275.498 115.913C279.272 116.101 283.026 116.597 286.72 117.395C289.9 118.045 293.117 118.504 296.352 118.768C298.995 119.025 301.65 119.137 304.305 119.104C306.291 119.075 308.264 118.783 310.173 118.234C311.367 117.874 312.527 117.411 313.641 116.851L314.49 116.407L314.796 116.259C314.796 116.259 314.717 116.328 314.53 116.436C314.342 116.545 314.056 116.723 313.68 116.93C312.578 117.535 311.42 118.031 310.222 118.412C308.3 119.007 306.306 119.34 304.295 119.4C301.631 119.459 298.967 119.37 296.313 119.133C293.065 118.896 289.835 118.457 286.641 117.819C282.964 117.05 279.231 116.575 275.478 116.397C271.289 116.301 267.111 116.851 263.089 118.027C258.731 119.355 254.478 121.006 250.365 122.966L250.454 122.897L244.023 130.514L243.904 130.099L248.913 131.62L255.986 133.754H255.789C258.696 132.219 261.751 130.981 264.907 130.06C267.899 129.166 270.963 128.534 274.065 128.173C277.017 127.846 279.991 127.76 282.956 127.916C290.563 128.275 298.18 127.462 305.54 125.505C307.519 124.969 309.462 124.31 311.359 123.53C313.001 122.885 314.559 122.046 316.002 121.03V121.089L317.721 116.407V116.466L317.108 114.016L317.177 114.085L315.142 113.868H315.211L315.004 115.636C314.895 115.972 314.826 116.16 314.826 116.16Z" fill="#263238"/>
<path d="M292.173 177.815C292.173 177.943 287.757 176.501 282.422 174.594C279.17 173.526 275.974 172.289 272.85 170.89C272.899 170.761 277.266 172.204 282.6 174.11C285.853 175.179 289.048 176.416 292.173 177.815Z" fill="#455A64"/>
<defs>
<linearGradient id="paint0_linear_544_4162" x1="293.326" y1="420.541" x2="268.227" y2="405.203" gradientUnits="userSpaceOnUse">
<stop stop-color="#43E5A0"/>
<stop offset="1" stop-color="#0FAA69"/>
</linearGradient>
<linearGradient id="paint1_linear_544_4162" x1="391.592" y1="406.632" x2="361.078" y2="395.641" gradientUnits="userSpaceOnUse">
<stop stop-color="#43E5A0"/>
<stop offset="1" stop-color="#0FAA69"/>
</linearGradient>
<linearGradient id="paint2_linear_544_4162" x1="440.731" y1="428.193" x2="423.348" y2="410.957" gradientUnits="userSpaceOnUse">
<stop stop-color="#43E5A0"/>
<stop offset="1" stop-color="#0FAA69"/>
</linearGradient>
<linearGradient id="paint3_linear_544_4162" x1="342.455" y1="411.044" x2="313.032" y2="398.855" gradientUnits="userSpaceOnUse">
<stop stop-color="#43E5A0"/>
<stop offset="1" stop-color="#0FAA69"/>
</linearGradient>
<linearGradient id="paint4_linear_544_4162" x1="244.188" y1="403.808" x2="213.146" y2="393.487" gradientUnits="userSpaceOnUse">
<stop stop-color="#43E5A0"/>
<stop offset="1" stop-color="#0FAA69"/>
</linearGradient>
<linearGradient id="paint5_linear_544_4162" x1="195.059" y1="393.287" x2="162.744" y2="384.935" gradientUnits="userSpaceOnUse">
<stop stop-color="#43E5A0"/>
<stop offset="1" stop-color="#0FAA69"/>
</linearGradient>
<linearGradient id="paint6_linear_544_4162" x1="145.93" y1="381.595" x2="112.875" y2="374.748" gradientUnits="userSpaceOnUse">
<stop stop-color="#43E5A0"/>
<stop offset="1" stop-color="#0FAA69"/>
</linearGradient>
<linearGradient id="paint7_linear_544_4162" x1="96.7816" y1="365.712" x2="63.2024" y2="360.233" gradientUnits="userSpaceOnUse">
<stop stop-color="#43E5A0"/>
<stop offset="1" stop-color="#0FAA69"/>
</linearGradient>
<linearGradient id="paint8_linear_544_4162" x1="47.6526" y1="342.188" x2="13.7026" y2="337.974" gradientUnits="userSpaceOnUse">
<stop stop-color="#43E5A0"/>
<stop offset="1" stop-color="#0FAA69"/>
</linearGradient>
<linearGradient id="paint9_linear_544_4162" x1="136.951" y1="107.173" x2="256.878" y2="183.962" gradientUnits="userSpaceOnUse">
<stop stop-color="#43E5A0"/>
<stop offset="1" stop-color="#0FAA69"/>
</linearGradient>
<linearGradient id="paint10_linear_544_4162" x1="397.95" y1="221.895" x2="428.73" y2="256.239" gradientUnits="userSpaceOnUse">
<stop stop-color="#43E5A0"/>
<stop offset="1" stop-color="#0FAA69"/>
</linearGradient>
<linearGradient id="paint11_linear_544_4162" x1="185.183" y1="316.777" x2="337.879" y2="471.604" gradientUnits="userSpaceOnUse">
<stop stop-color="#43E5A0"/>
<stop offset="1" stop-color="#0FAA69"/>
</linearGradient>
<linearGradient id="paint12_linear_544_4162" x1="35.3667" y1="214.187" x2="93.53" y2="273.453" gradientUnits="userSpaceOnUse">
<stop stop-color="#43E5A0"/>
<stop offset="1" stop-color="#0FAA69"/>
</linearGradient>
<linearGradient id="paint13_linear_544_4162" x1="228.602" y1="123.844" x2="235.82" y2="150.343" gradientUnits="userSpaceOnUse">
<stop stop-color="#43E5A0"/>
<stop offset="1" stop-color="#0FAA69"/>
</linearGradient>
</defs>
</svg>
